<?xml version="1.0" encoding="UTF-8"?>
<svg xmlns="http://www.w3.org/2000/svg" xmlns:xlink="http://www.w3.org/1999/xlink" viewBox="0 0 414.31 317.86">
  <defs>
    <style>
      .cls-1 {
        fill: none;
      }

      .cls-2 {
        fill: url(#radial-gradient-3);
      }

      .cls-3 {
        fill: url(#radial-gradient-2);
      }

      .cls-4 {
        fill: url(#linear-gradient-8);
      }

      .cls-5 {
        fill: url(#linear-gradient-7);
      }

      .cls-6 {
        fill: url(#linear-gradient-5);
      }

      .cls-7 {
        fill: url(#linear-gradient-6);
      }

      .cls-8 {
        fill: url(#linear-gradient-9);
      }

      .cls-9 {
        fill: url(#linear-gradient-4);
      }

      .cls-10 {
        fill: url(#linear-gradient-3);
      }

      .cls-11 {
        fill: url(#linear-gradient-2);
      }

      .cls-12 {
        fill: #e9eaea;
      }

      .cls-13 {
        fill: url(#radial-gradient);
      }

      .cls-14 {
        fill: url(#linear-gradient);
      }

      .cls-15 {
        isolation: isolate;
      }

      .cls-16 {
        fill: url(#linear-gradient-10);
      }

      .cls-16, .cls-17, .cls-18 {
        mix-blend-mode: multiply;
      }

      .cls-19 {
        fill: #475063;
      }

      .cls-17 {
        fill: url(#linear-gradient-11);
      }

      .cls-17, .cls-18 {
        opacity: .28;
      }

      .cls-18 {
        fill: url(#linear-gradient-12);
      }
    </style>
    <linearGradient id="linear-gradient" x1="120.97" y1="159.21" x2="120.97" y2="317.86" gradientUnits="userSpaceOnUse">
      <stop offset="0" stop-color="#000"/>
      <stop offset="1" stop-color="#000"/>
    </linearGradient>
    <linearGradient id="linear-gradient-2" x1="200.86" y1="95.51" x2="414.31" y2="95.51" gradientUnits="userSpaceOnUse">
      <stop offset="0" stop-color="#e9eaea"/>
      <stop offset="1" stop-color="#475063"/>
    </linearGradient>
    <radialGradient id="radial-gradient" cx="100.43" cy="95.51" fx="100.43" fy="95.51" r="84.05" gradientUnits="userSpaceOnUse">
      <stop offset="0" stop-color="#9372f8"/>
      <stop offset="1" stop-color="#432798"/>
    </radialGradient>
    <radialGradient id="radial-gradient-2" cx="307.58" cy="222.69" fx="307.58" fy="222.69" r="87.84" xlink:href="#radial-gradient"/>
    <radialGradient id="radial-gradient-3" cy="222.68" fy="222.68" xlink:href="#radial-gradient"/>
    <linearGradient id="linear-gradient-3" y1="207.69" x2="368.18" y2="207.69" xlink:href="#linear-gradient-2"/>
    <linearGradient id="linear-gradient-4" x1="43.83" y1="207.68" x2="200.86" y2="207.68" gradientUnits="userSpaceOnUse">
      <stop offset="0" stop-color="#d991fb"/>
      <stop offset=".66" stop-color="#9573f8"/>
      <stop offset="1" stop-color="#210077"/>
    </linearGradient>
    <linearGradient id="linear-gradient-5" x1="43.83" y1="110.52" x2="200.86" y2="110.52" gradientUnits="userSpaceOnUse">
      <stop offset="0" stop-color="#1b1b29"/>
      <stop offset="1" stop-color="#475063"/>
    </linearGradient>
    <linearGradient id="linear-gradient-6" x1="200.86" y1="110.51" x2="368.18" y2="110.51" gradientUnits="userSpaceOnUse">
      <stop offset="0" stop-color="#fbbf00"/>
      <stop offset="1" stop-color="#ffa900"/>
    </linearGradient>
    <linearGradient id="linear-gradient-7" x1="199.47" y1="113.64" x2="176.94" y2="147.79" gradientUnits="userSpaceOnUse">
      <stop offset="0" stop-color="#fbbf00"/>
      <stop offset="1" stop-color="#ffa900"/>
    </linearGradient>
    <linearGradient id="linear-gradient-8" x1="202.53" y1="166.08" x2="227.9" y2="189.39" gradientUnits="userSpaceOnUse">
      <stop offset="0" stop-color="#475063"/>
      <stop offset="1" stop-color="#feac00"/>
    </linearGradient>
    <linearGradient id="linear-gradient-9" x1="138.1" y1="193.37" x2="200.86" y2="193.37" gradientUnits="userSpaceOnUse">
      <stop offset="0" stop-color="#dccb00"/>
      <stop offset="1" stop-color="#ffa900"/>
    </linearGradient>
    <linearGradient id="linear-gradient-10" x1="249.47" y1="107.95" x2="201.51" y2="154.94" xlink:href="#linear-gradient-5"/>
    <linearGradient id="linear-gradient-11" x1="82.24" y1="159.1" x2="82.24" y2="183.95" xlink:href="#linear-gradient"/>
    <linearGradient id="linear-gradient-12" x1="312.9" y1="159.1" x2="312.9" y2="183.3" gradientTransform="translate(640.61) rotate(-180) scale(1 -1)" xlink:href="#linear-gradient"/>
  </defs>
  <g class="cls-15">
    <g id="Layer_2" data-name="Layer 2">
      <g id="Layer_2-2" data-name="Layer 2">
        <g>
          <g>
            <g>
              <path class="cls-12" d="M200.86,0v158.64H42.22C42.22,71.17,113.39,0,200.86,0Z"/>
              <path class="cls-14" d="M200.29,159.21v158.64c-87.47,0-158.64-71.17-158.64-158.64h158.64Z"/>
              <path class="cls-19" d="M358.93,159.21c0,87.47-71.17,158.64-158.64,158.64v-158.64h158.64Z"/>
            </g>
            <g>
              <path class="cls-1" d="M200.86,91.93c-5.73.05-27.86,3.36-80.21,42.32-11.6,8.64-22.39,17.34-31.36,24.85"/>
              <path class="cls-1" d="M200.86,226.27s.1,0,.14,0c5.65,0,28.56-3.1,86.24-42.98,12.12-8.38,23.49-16.83,33.07-24.2"/>
              <path class="cls-1" d="M320.3,159.1c-9.58-7.37-20.94-15.82-33.07-24.2-57.68-39.88-80.59-42.98-86.24-42.98-.04,0-.1,0-.14,0"/>
              <path class="cls-1" d="M89.3,159.1c8.96,7.52,19.75,16.22,31.36,24.85,52.35,38.95,74.48,42.27,80.21,42.32"/>
              <path class="cls-11" d="M321.79,85.85c-21.53-14.91-41.24-26.87-58.59-35.56-24.67-12.35-45.01-18.36-62.2-18.36-.05,0-.1,0-.14,0v30s.1,0,.14,0c53.67,0,167.17,97.17,167.17,97.17h46.13l-26.62-22.79c-1.21-1.03-29.96-25.58-65.89-50.46Z"/>
              <path class="cls-13" d="M200.86,61.93v-30c-29.25.06-67.36,17.9-116.5,54.53-33.56,25.02-59.96,49.73-61.06,50.77L0,159.1h43.83S147.15,62.1,200.86,61.93Z"/>
              <path class="cls-3" d="M201,256.27s-.1,0-.14,0v30s.1,0,.14,0c17.19,0,37.53-6.01,62.2-18.36,17.35-8.69,37.06-20.66,58.59-35.56,35.94-24.88,64.69-49.43,65.89-50.46l26.62-22.79h-46.13s-113.51,97.17-167.17,97.17Z"/>
              <path class="cls-2" d="M43.83,159.1H0l23.3,21.87c1.11,1.04,27.5,25.74,61.06,50.77,49.14,36.64,87.25,54.47,116.5,54.53v-30c-53.71-.17-157.03-97.17-157.03-97.17Z"/>
              <path class="cls-10" d="M287.24,183.3c-57.68,39.88-80.59,42.98-86.24,42.98-.04,0-.1,0-.14,0v30s.1,0,.14,0c53.67,0,167.17-97.17,167.17-97.17h-47.87c-9.58,7.37-20.94,15.82-33.07,24.2Z"/>
              <path class="cls-9" d="M120.65,183.95c-11.6-8.64-22.39-17.34-31.36-24.85h-45.47s103.32,97,157.03,97.17v-30c-5.73-.05-27.86-3.36-80.21-42.32Z"/>
              <path class="cls-6" d="M89.3,159.1c8.96-7.52,19.75-16.22,31.36-24.85,52.35-38.95,74.48-42.27,80.21-42.32v-30c-53.71.17-157.03,97.17-157.03,97.17h45.47Z"/>
              <path class="cls-7" d="M201,91.93c5.65,0,28.56,3.1,86.24,42.98,12.12,8.38,23.49,16.83,33.07,24.2h47.87S254.67,61.93,201,61.93c-.05,0-.1,0-.14,0v30s.1,0,.14,0Z"/>
            </g>
            <g>
              <polygon class="cls-5" points="200.86 90.56 200.86 159.1 138.1 159.1 200.86 90.56"/>
              <polygon class="cls-4" points="263.62 159.1 200.86 227.64 200.86 159.1 263.62 159.1"/>
              <polygon class="cls-8" points="138.1 159.1 200.86 159.1 200.86 227.64 138.1 159.1"/>
              <polygon class="cls-16" points="263.62 159.1 200.86 159.1 200.86 90.56 263.62 159.1"/>
            </g>
          </g>
          <polyline class="cls-17" points="43.83 159.1 120.65 183.95 89.3 159.1"/>
          <polyline class="cls-18" points="368.18 159.1 287.24 183.3 320.32 159.1"/>
        </g>
      </g>
    </g>
  </g>
</svg>