<?xml version="1.0" encoding="UTF-8"?>
<svg xmlns="http://www.w3.org/2000/svg" xmlns:xlink="http://www.w3.org/1999/xlink" viewBox="0 0 434.31 437.08">
  <defs>
    <style>
      .cls-1 {
        fill: none;
      }

      .cls-2 {
        fill: url(#linear-gradient-7);
      }

      .cls-3 {
        fill: url(#linear-gradient-5);
      }

      .cls-4 {
        fill: url(#linear-gradient-6);
      }

      .cls-5 {
        fill: url(#linear-gradient-4);
      }

      .cls-6 {
        fill: url(#linear-gradient-3);
      }

      .cls-7 {
        fill: #e9eaea;
      }

      .cls-8 {
        fill: url(#linear-gradient);
      }

      .cls-9 {
        isolation: isolate;
      }

      .cls-10 {
        fill: #9372f8;
        mix-blend-mode: multiply;
      }

      .cls-11 {
        fill: url(#linear-gradient-2);
        fill-opacity: .8;
      }
    </style>
    <linearGradient id="linear-gradient" x1="58.05" y1="205.19" x2="398.66" y2="205.19" gradientUnits="userSpaceOnUse">
      <stop offset="0" stop-color="#d991fb"/>
      <stop offset="1" stop-color="#9372f8"/>
    </linearGradient>
    <linearGradient id="linear-gradient-2" x1="228.35" y1="120.04" x2="398.66" y2="120.04" gradientUnits="userSpaceOnUse">
      <stop offset="0" stop-color="#554ff8"/>
      <stop offset="1" stop-color="#0000bf"/>
    </linearGradient>
    <linearGradient id="linear-gradient-3" x1="212.96" y1="421.68" x2="414.05" y2="220.59" gradientUnits="userSpaceOnUse">
      <stop offset="0" stop-color="#f8132c"/>
      <stop offset=".19" stop-color="#f3142a"/>
      <stop offset=".4" stop-color="#e51726"/>
      <stop offset=".63" stop-color="#cf1c20"/>
      <stop offset=".85" stop-color="#b02318"/>
      <stop offset=".86" stop-color="#b02418"/>
    </linearGradient>
    <linearGradient id="linear-gradient-4" x1="244.85" y1="439.99" x2="286.77" y2="202.28" gradientUnits="userSpaceOnUse">
      <stop offset="0" stop-color="#f8132c"/>
      <stop offset=".22" stop-color="#f3142a"/>
      <stop offset=".47" stop-color="#e51726"/>
      <stop offset=".73" stop-color="#cf1c20"/>
      <stop offset="1" stop-color="#b02318"/>
      <stop offset="1" stop-color="#b02418"/>
    </linearGradient>
    <linearGradient id="linear-gradient-5" x1="296.62" y1="234.88" x2="307.11" y2="175.42" xlink:href="#linear-gradient-3"/>
    <linearGradient id="linear-gradient-6" x1="297.08" y1="308.7" x2="307.57" y2="249.24" gradientUnits="userSpaceOnUse">
      <stop offset="0" stop-color="#ffa901"/>
      <stop offset="1" stop-color="#fcbb00"/>
    </linearGradient>
    <linearGradient id="linear-gradient-7" x1="297.08" y1="382.44" x2="307.57" y2="322.98" xlink:href="#linear-gradient-6"/>
  </defs>
  <g class="cls-9">
    <g id="Layer_2" data-name="Layer 2">
      <g id="Layer_2-2" data-name="Layer 2">
        <g>
          <path d="M373.98,60.32c-18.9-18.9-40.91-33.74-65.45-44.11C283.11,5.45,256.13,0,228.35,0v60c80.61,0,145.95,65.35,145.95,145.95h60c0-27.78-5.45-54.76-16.21-80.18-10.38-24.53-25.22-46.55-44.11-65.45Z"/>
          <path class="cls-8" d="M228.35,131.45c40.73,0,73.74,33.01,73.74,73.74s-33.01,73.74-73.74,73.74-73.74-33.01-73.74-73.74,33.01-73.74,73.74-73.74M228.35,34.88c-22.96,0-45.27,4.51-66.31,13.41-20.29,8.58-38.49,20.85-54.11,36.47-15.62,15.62-27.89,33.82-36.47,54.11-8.9,21.04-13.41,43.35-13.41,66.31s4.51,45.27,13.41,66.31c8.58,20.29,20.85,38.49,36.47,54.11,15.62,15.62,33.82,27.89,54.11,36.47,21.04,8.9,43.35,13.41,66.31,13.41s45.27-4.51,66.31-13.41c20.29-8.58,38.49-20.85,54.11-36.47,15.62-15.62,27.89-33.82,36.47-54.11,8.9-21.04,13.41-43.35,13.41-66.31s-4.51-45.27-13.41-66.31c-8.58-20.29-20.85-38.49-36.47-54.11-15.62-15.62-33.82-27.89-54.11-36.47-21.04-8.9-43.35-13.41-66.31-13.41h0Z"/>
          <g>
            <path class="cls-1" d="M82.4,205.19c0,80.61,65.35,145.95,145.95,145.95V59.24c-80.61,0-145.95,65.35-145.95,145.95Z"/>
            <path class="cls-1" d="M374.31,205.19c0-80.61-65.35-145.95-145.95-145.95v291.91c80.61,0,145.95-65.35,145.95-145.95Z"/>
          </g>
          <path class="cls-11" d="M348.78,84.77c-15.62-15.62-33.82-27.89-54.11-36.47-21.04-8.9-43.35-13.41-66.31-13.41v170.3h170.3c0-22.96-4.51-45.27-13.41-66.31-8.58-20.29-20.85-38.49-36.47-54.11Z"/>
          <rect class="cls-6" x="228.35" y="205.19" width="170.3" height="231.89"/>
          <rect class="cls-5" x="228.35" y="205.19" width="74.91" height="231.89"/>
          <path d="M155.38,205.95c0,40.3,32.67,72.98,72.98,72.98v-145.95c-40.3,0-72.98,32.67-72.98,72.98Z"/>
          <circle class="cls-10" cx="58.84" cy="204.4" r="58.84"/>
          <g>
            <path class="cls-7" d="M302.09,235.38c16.67,0,30.19-13.51,30.19-30.19h-60.37c0,16.67,13.51,30.19,30.19,30.19Z"/>
            <path class="cls-3" d="M302.09,175c-16.67,0-30.19,13.52-30.19,30.19h60.37c0-16.67-13.52-30.19-30.19-30.19Z"/>
          </g>
          <g>
            <path class="cls-4" d="M302.09,309.12c16.67,0,30.19-13.51,30.19-30.19h-60.37c0,16.67,13.51,30.19,30.19,30.19Z"/>
            <path class="cls-7" d="M302.09,248.74c-16.67,0-30.19,13.52-30.19,30.19h60.37c0-16.67-13.52-30.19-30.19-30.19Z"/>
          </g>
          <g>
            <path class="cls-2" d="M302.09,382.86c16.67,0,30.19-13.51,30.19-30.19h-60.37c0,16.67,13.51,30.19,30.19,30.19Z"/>
            <path class="cls-7" d="M302.09,322.48c-16.67,0-30.19,13.52-30.19,30.19h60.37c0-16.67-13.52-30.19-30.19-30.19Z"/>
          </g>
        </g>
      </g>
    </g>
  </g>
</svg>