<?xml version="1.0" encoding="UTF-8"?>
<svg xmlns="http://www.w3.org/2000/svg" xmlns:xlink="http://www.w3.org/1999/xlink" viewBox="0 0 471.24 527.38">
  <defs>
    <style>
      .cls-1 {
        fill: url(#linear-gradient-5);
      }

      .cls-2 {
        fill: url(#linear-gradient-4);
      }

      .cls-3 {
        fill: url(#linear-gradient-3);
      }

      .cls-4 {
        fill: url(#linear-gradient-2);
      }

      .cls-5 {
        fill: url(#linear-gradient-6);
      }

      .cls-5, .cls-6 {
        mix-blend-mode: multiply;
      }

      .cls-7, .cls-6 {
        fill: #9372f8;
      }

      .cls-8 {
        fill: url(#linear-gradient);
      }

      .cls-9 {
        isolation: isolate;
      }

      .cls-10 {
        stroke: #f5f5f5;
        stroke-width: 8px;
      }

      .cls-10, .cls-11 {
        fill: none;
        stroke-miterlimit: 10;
      }

      .cls-12 {
        fill: #f5f5f5;
      }

      .cls-11 {
        stroke: #000;
        stroke-linecap: round;
        stroke-width: 4px;
      }
    </style>
    <linearGradient id="linear-gradient" x1="1.27" y1="354.17" x2="471.24" y2="354.17" gradientUnits="userSpaceOnUse">
      <stop offset="0" stop-color="#d991fb"/>
      <stop offset="1" stop-color="#9372f8"/>
    </linearGradient>
    <linearGradient id="linear-gradient-2" x1="289.92" y1="331.35" x2="416.95" y2="331.35" gradientUnits="userSpaceOnUse">
      <stop offset="0" stop-color="#ffa901"/>
      <stop offset="1" stop-color="#fcbb00"/>
    </linearGradient>
    <linearGradient id="linear-gradient-3" x1="388.64" y1="331.35" x2="464.2" y2="331.35" xlink:href="#linear-gradient-2"/>
    <linearGradient id="linear-gradient-4" x1="125.96" y1="281.22" x2="127.89" y2="520.7" gradientUnits="userSpaceOnUse">
      <stop offset="0" stop-color="#432798"/>
      <stop offset="1" stop-color="#9372f8"/>
    </linearGradient>
    <linearGradient id="linear-gradient-5" x1="189.49" y1="54.88" x2="375.06" y2="54.88" gradientUnits="userSpaceOnUse">
      <stop offset=".6" stop-color="#fbbf00"/>
      <stop offset="1" stop-color="#ffa900"/>
    </linearGradient>
    <linearGradient id="linear-gradient-6" x1="320.18" y1="54.88" x2="429.95" y2="54.88" gradientTransform="translate(148.66 -249.14) rotate(45)" xlink:href="#linear-gradient-5"/>
  </defs>
  <g class="cls-9">
    <g id="Layer_2" data-name="Layer 2">
      <g id="Layer_2-2" data-name="Layer 2">
        <g>
          <path class="cls-8" d="M218.27,190.29L5.32,492.71c-10.26,14.58.16,34.67,17.99,34.67h425.89c17.83,0,28.25-20.09,17.99-34.67L254.24,190.29c-8.76-12.45-27.21-12.45-35.98,0Z"/>
          <polygon class="cls-7" points="236.25 250.35 41.19 527.38 431.32 527.38 236.25 250.35"/>
          <circle class="cls-4" cx="353.44" cy="331.35" r="63.51"/>
          <circle class="cls-3" cx="426.42" cy="331.35" r="37.78"/>
          <path class="cls-2" d="M117.67,331.35L4.05,492.71c-10.26,14.58.16,34.67,17.99,34.67h233.66l-138.03-196.03Z"/>
          <path class="cls-6" d="M353.57,331.35l-138.03,196.03h233.66c17.83,0,28.25-20.09,17.99-34.67l-113.62-161.36Z"/>
          <path class="cls-1" d="M244.37,0h130.7v109.76h-130.7c-30.29,0-54.88-24.59-54.88-54.88h0C189.49,24.59,214.08,0,244.37,0Z"/>
          <rect class="cls-5" x="336.26" y="16.07" width="77.61" height="77.61" transform="translate(71.05 281.29) rotate(-45)"/>
          <circle class="cls-12" cx="236.25" cy="54.88" r="22.02"/>
          <circle class="cls-10" cx="236.25" cy="251.9" r="22.02"/>
          <line class="cls-11" x1="236.25" y1="54.88" x2="236.25" y2="251.9"/>
        </g>
      </g>
    </g>
  </g>
</svg>