<svg width="249" height="266" viewBox="0 0 249 266" fill="none" xmlns="http://www.w3.org/2000/svg">
<g clip-path="url(#clip0_7_495)">
<path d="M28.1518 85.1031H13.0624C5.84824 85.1031 -3.05176e-05 90.9514 -3.05176e-05 98.1656V159.164C-3.05176e-05 166.378 5.84824 172.226 13.0624 172.226H28.1518C35.3661 172.226 41.2143 166.378 41.2143 159.164V98.1656C41.2143 90.9514 35.3661 85.1031 28.1518 85.1031Z" fill="url(#paint0_linear_7_495)"/>
<path d="M97.8207 39.307H82.7313C75.5171 39.307 69.6688 45.1553 69.6688 52.3695V139.302C69.6688 146.517 75.5171 152.365 82.7313 152.365H97.8207C105.035 152.365 110.883 146.517 110.883 139.302V52.3695C110.883 45.1553 105.035 39.307 97.8207 39.307Z" fill="url(#paint1_linear_7_495)"/>
<path d="M152.4 88.988H167.49C172.564 88.988 176.681 93.1052 176.681 98.1796V202.546C176.681 207.62 172.564 211.737 167.49 211.737H152.4C147.326 211.737 143.209 207.62 143.209 202.546V98.1796C143.209 93.1052 147.326 88.988 152.4 88.988Z" fill="white"/>
<path d="M167.483 92.859C170.417 92.859 172.803 95.2448 172.803 98.1797V202.546C172.803 205.481 170.417 207.866 167.483 207.866H152.393C149.458 207.866 147.072 205.481 147.072 202.546V98.1797C147.072 95.2448 149.458 92.859 152.393 92.859H167.483ZM167.483 85.1172H152.393C145.179 85.1172 139.331 90.9657 139.331 98.1797V202.546C139.331 209.76 145.179 215.608 152.393 215.608H167.483C174.696 215.608 180.545 209.76 180.545 202.546V98.1797C180.545 90.9657 174.696 85.1172 167.483 85.1172Z" fill="#F83149"/>
<path d="M158.805 73.8001C150.204 73.8001 143.202 66.8044 143.202 58.1969C143.202 49.5895 150.197 42.5938 158.805 42.5938C167.412 42.5938 174.408 49.5895 174.408 58.1969C174.408 66.8044 167.412 73.8001 158.805 73.8001Z" fill="white"/>
<path d="M158.805 46.4717C165.273 46.4717 170.537 51.7361 170.537 58.204C170.537 64.6719 165.273 69.9363 158.805 69.9363C152.337 69.9363 147.072 64.6719 147.072 58.204C147.072 51.7361 152.337 46.4717 158.805 46.4717ZM158.805 38.73C148.051 38.73 139.331 47.45 139.331 58.204C139.331 68.9581 148.051 77.6781 158.805 77.6781C169.559 77.6781 178.279 68.9581 178.279 58.204C178.279 47.45 169.559 38.73 158.805 38.73Z" fill="#F83149"/>
<path d="M109.743 19.4741H70.8019C70.8019 8.72005 79.5149 0 90.269 0C101.023 0 109.743 8.72005 109.743 19.4741Z" fill="#E9EAEA"/>
<path d="M109.743 19.4741C109.743 30.2281 101.023 38.9482 90.269 38.9482C79.5149 38.9482 70.8019 30.2281 70.8019 19.4741H109.743Z" fill="#FBBF00"/>
<path d="M158.805 262.129C150.204 262.129 143.202 255.133 143.202 246.526C143.202 237.919 150.197 230.923 158.805 230.923C167.412 230.923 174.408 237.919 174.408 246.526C174.408 255.133 167.412 262.129 158.805 262.129Z" fill="white"/>
<path d="M158.805 234.794C165.273 234.794 170.537 240.058 170.537 246.526C170.537 252.994 165.273 258.258 158.805 258.258C152.337 258.258 147.072 252.994 147.072 246.526C147.072 240.058 152.337 234.794 158.805 234.794ZM158.805 227.052C148.051 227.052 139.331 235.772 139.331 246.526C139.331 257.28 148.051 266 158.805 266C169.559 266 178.279 257.28 178.279 246.526C178.279 235.772 169.559 227.052 158.805 227.052Z" fill="#F83149"/>
<path d="M109.743 172.233C109.743 182.987 101.023 191.7 90.269 191.7C79.5149 191.7 70.8019 182.987 70.8019 172.233H109.743Z" fill="#E9EAEA"/>
<path d="M109.743 172.233H70.8019C70.8019 161.479 79.5149 152.759 90.269 152.759C101.023 152.759 109.743 161.479 109.743 172.233Z" fill="#FBBF00"/>
<path d="M38.9411 191.7C38.9411 202.454 30.221 211.174 19.467 211.174C8.71298 211.174 -3.05176e-05 202.454 -3.05176e-05 191.7H38.9411Z" fill="url(#paint2_linear_7_495)"/>
<path d="M38.9411 191.7H-3.05176e-05C-3.05176e-05 180.946 8.71298 172.233 19.467 172.233C30.221 172.233 38.9411 180.946 38.9411 191.7Z" fill="url(#paint3_linear_7_495)"/>
<path d="M38.9411 65.6361H-3.05176e-05C-3.05176e-05 54.882 8.71298 46.162 19.467 46.162C30.221 46.162 38.9411 54.882 38.9411 65.6361Z" fill="url(#paint4_linear_7_495)"/>
<path d="M38.9411 65.6361C38.9411 76.3901 30.221 85.1031 19.467 85.1031C8.71298 85.1031 -3.05176e-05 76.3901 -3.05176e-05 65.6361H38.9411Z" fill="#FBBF00"/>
<path d="M158.805 58.1969V246.526" stroke="black" stroke-width="1.40759" stroke-miterlimit="10"/>
<path d="M90.276 19.4741V172.233" stroke="black" stroke-width="1.40759" stroke-miterlimit="10"/>
<path d="M19.4741 65.6361V193.368" stroke="black" stroke-width="1.40759" stroke-miterlimit="10"/>
<path d="M90.276 24.7947C93.2146 24.7947 95.5967 22.4126 95.5967 19.474C95.5967 16.5355 93.2146 14.1533 90.276 14.1533C87.3375 14.1533 84.9553 16.5355 84.9553 19.474C84.9553 22.4126 87.3375 24.7947 90.276 24.7947Z" fill="#3265E5"/>
<path d="M90.276 177.554C93.2146 177.554 95.5967 175.172 95.5967 172.233C95.5967 169.295 93.2146 166.912 90.276 166.912C87.3375 166.912 84.9553 169.295 84.9553 172.233C84.9553 175.172 87.3375 177.554 90.276 177.554Z" fill="#3265E5"/>
<path d="M19.474 197.021C22.4126 197.021 24.7947 194.639 24.7947 191.7C24.7947 188.762 22.4126 186.38 19.474 186.38C16.5355 186.38 14.1533 188.762 14.1533 191.7C14.1533 194.639 16.5355 197.021 19.474 197.021Z" fill="#3265E5"/>
<path d="M19.474 70.9567C22.4126 70.9567 24.7947 68.5746 24.7947 65.636C24.7947 62.6975 22.4126 60.3153 19.474 60.3153C16.5355 60.3153 14.1533 62.6975 14.1533 65.636C14.1533 68.5746 16.5355 70.9567 19.474 70.9567Z" fill="#3265E5"/>
<path d="M158.805 63.5176C161.743 63.5176 164.125 61.1355 164.125 58.1969C164.125 55.2584 161.743 52.8762 158.805 52.8762C155.866 52.8762 153.484 55.2584 153.484 58.1969C153.484 61.1355 155.866 63.5176 158.805 63.5176Z" fill="#3265E5"/>
<path d="M158.805 251.847C161.743 251.847 164.125 249.465 164.125 246.526C164.125 243.587 161.743 241.205 158.805 241.205C155.866 241.205 153.484 243.587 153.484 246.526C153.484 249.465 155.866 251.847 158.805 251.847Z" fill="#3265E5"/>
<path d="M235.476 39.307H220.387C213.173 39.307 207.324 45.1553 207.324 52.3695V173.317C207.324 180.531 213.173 186.379 220.387 186.379H235.476C242.691 186.379 248.539 180.531 248.539 173.317V52.3695C248.539 45.1553 242.691 39.307 235.476 39.307Z" fill="url(#paint5_linear_7_495)"/>
<path d="M247.399 19.4741H208.458C208.458 8.72005 217.171 0 227.925 0C238.679 0 247.399 8.72005 247.399 19.4741Z" fill="#E9EAEA"/>
<path d="M247.399 19.4741C247.399 30.2281 238.679 38.9482 227.925 38.9482C217.171 38.9482 208.458 30.2281 208.458 19.4741H247.399Z" fill="#FBBF00"/>
<path d="M247.399 217.009C247.399 227.763 238.679 236.476 227.925 236.476C217.171 236.476 208.458 227.763 208.458 217.009H247.399Z" fill="#E9EAEA"/>
<path d="M247.399 217.009H208.458C208.458 206.255 217.171 197.535 227.925 197.535C238.679 197.535 247.399 206.255 247.399 217.009Z" fill="#FBBF00"/>
<path d="M227.925 19.4741V217.002" stroke="black" stroke-width="1.40759" stroke-miterlimit="10"/>
<path d="M227.925 24.7947C230.863 24.7947 233.245 22.4126 233.245 19.474C233.245 16.5355 230.863 14.1533 227.925 14.1533C224.986 14.1533 222.604 16.5355 222.604 19.474C222.604 22.4126 224.986 24.7947 227.925 24.7947Z" fill="#3265E5"/>
<path d="M227.925 222.322C230.863 222.322 233.245 219.94 233.245 217.002C233.245 214.063 230.863 211.681 227.925 211.681C224.986 211.681 222.604 214.063 222.604 217.002C222.604 219.94 224.986 222.322 227.925 222.322Z" fill="#3265E5"/>
</g>
<defs>
<linearGradient id="paint0_linear_7_495" x1="20.6071" y1="172.233" x2="20.6071" y2="85.7295" gradientUnits="userSpaceOnUse">
<stop stop-color="#4070E7"/>
<stop offset="1" stop-color="#2554C9"/>
</linearGradient>
<linearGradient id="paint1_linear_7_495" x1="69.6688" y1="95.836" x2="110.876" y2="95.836" gradientUnits="userSpaceOnUse">
<stop stop-color="#4070E7"/>
<stop offset="1" stop-color="#2554C9"/>
</linearGradient>
<linearGradient id="paint2_linear_7_495" x1="-3.05176e-05" y1="201.441" x2="38.9411" y2="201.441" gradientUnits="userSpaceOnUse">
<stop stop-color="#FBBF00"/>
<stop offset="1" stop-color="#FFA900"/>
</linearGradient>
<linearGradient id="paint3_linear_7_495" x1="19.474" y1="181.967" x2="19.474" y2="220.901" gradientUnits="userSpaceOnUse">
<stop stop-color="#FBBF00"/>
<stop offset="1" stop-color="#FFA900"/>
</linearGradient>
<linearGradient id="paint4_linear_7_495" x1="-3.05176e-05" y1="55.9025" x2="0.703766" y2="55.9025" gradientUnits="userSpaceOnUse">
<stop stop-color="#FBBF00"/>
<stop offset="1" stop-color="#FFA900"/>
</linearGradient>
<linearGradient id="paint5_linear_7_495" x1="207.324" y1="112.847" x2="248.532" y2="112.847" gradientUnits="userSpaceOnUse">
<stop stop-color="#4070E7"/>
<stop offset="1" stop-color="#2554C9"/>
</linearGradient>
<clipPath id="clip0_7_495">
<rect width="248.532" height="266" fill="white"/>
</clipPath>
</defs>
</svg>
