<svg width="216" height="139" viewBox="0 0 216 139" fill="none" xmlns="http://www.w3.org/2000/svg">
<path d="M183.724 116.094C185.299 116.094 186.678 116.368 187.863 116.917C189.054 117.458 189.989 118.214 190.668 119.181C191.346 120.141 191.697 121.249 191.719 122.498H187.852C187.751 121.552 187.323 120.814 186.573 120.287C185.829 119.76 184.861 119.495 183.669 119.495C182.832 119.495 182.113 119.622 181.514 119.875C180.915 120.128 180.455 120.473 180.138 120.906C179.821 121.339 179.657 121.833 179.65 122.388C179.65 122.85 179.755 123.253 179.964 123.592C180.181 123.931 180.474 124.22 180.842 124.458C181.21 124.689 181.619 124.885 182.067 125.044C182.514 125.203 182.966 125.336 183.42 125.444L185.501 125.965C186.338 126.16 187.145 126.423 187.918 126.755C188.697 127.087 189.394 127.507 190.008 128.012C190.629 128.518 191.121 129.129 191.482 129.843C191.843 130.558 192.023 131.397 192.023 132.357C192.023 133.656 191.691 134.801 191.027 135.79C190.362 136.772 189.401 137.543 188.144 138.099C186.895 138.648 185.381 138.922 183.604 138.922C181.879 138.922 180.38 138.656 179.109 138.121C177.845 137.587 176.855 136.805 176.14 135.78C175.433 134.755 175.049 133.505 174.991 132.032H178.946C179.003 132.804 179.242 133.447 179.66 133.959C180.079 134.472 180.625 134.856 181.295 135.108C181.974 135.361 182.734 135.488 183.572 135.488C184.445 135.488 185.211 135.358 185.868 135.098C186.532 134.831 187.054 134.463 187.43 133.994C187.805 133.517 187.996 132.959 188.003 132.324C187.996 131.747 187.827 131.268 187.495 130.893C187.163 130.511 186.695 130.194 186.097 129.941C185.505 129.681 184.811 129.449 184.016 129.247L181.491 128.596C179.664 128.127 178.219 127.416 177.157 126.463C176.104 125.502 175.577 124.227 175.577 122.639C175.577 121.332 175.929 120.185 176.637 119.203C177.352 118.221 178.324 117.459 179.552 116.917C180.78 116.368 182.172 116.094 183.724 116.094Z" fill="white"/>
<path d="M37.8927 132.477H38.1521L44.7381 116.397H49.6579V138.587H45.8014V123.343H45.5953L39.4628 138.522H36.5803L30.4478 123.311H30.2417V138.587H26.3852V116.397H31.305L37.8927 132.477Z" fill="white"/>
<path fill-rule="evenodd" clip-rule="evenodd" d="M76.4674 138.587H72.1781L70.34 133.114H61.9985L60.1621 138.587H55.8728L63.6836 116.397H68.6446L76.4674 138.587ZM63.0807 129.885H69.2544L66.2517 120.947H66.0782L63.0807 129.885Z" fill="white"/>
<path fill-rule="evenodd" clip-rule="evenodd" d="M90.9913 116.397C92.6954 116.397 94.1269 116.693 95.2823 117.285C96.4445 117.877 97.3218 118.709 97.914 119.777C98.5131 120.838 98.8138 122.078 98.8141 123.493C98.8141 124.915 98.5116 126.153 97.9054 127.2C97.306 128.239 96.4193 129.044 95.2497 129.615C95.1127 129.681 94.9698 129.741 94.8254 129.799L99.6266 138.587H95.1415L90.78 130.46H86.69V138.587H82.6703V116.397H90.9913ZM86.69 127.122H90.3952C91.3919 127.122 92.2092 126.986 92.8448 126.712C93.4799 126.43 93.9501 126.021 94.2534 125.487C94.5634 124.946 94.7189 124.279 94.7189 123.493C94.7186 122.706 94.5636 122.033 94.2534 121.478C93.9428 120.915 93.4679 120.488 92.8328 120.2C92.1973 119.904 91.3764 119.757 90.3729 119.757H86.69V127.122Z" fill="white"/>
<path d="M111.5 126.593H111.773L120.429 116.397H125.337L116.756 126.355L125.412 138.587H120.58L113.96 129.074L111.5 131.977V138.587H107.482V116.397H111.5V126.593Z" fill="white"/>
<path d="M146.685 119.767H136.272V125.791H145.938V129.16H136.272V135.218H146.771V138.587H132.254V116.397H146.685V119.767Z" fill="white"/>
<path d="M169.946 119.767H163.089V138.587H159.102V119.767H152.243V116.397H169.946V119.767Z" fill="white"/>
<path d="M83.3145 5.48919C91.1294 1.48264 99.9128 -0.390823 108.733 0.0678469C117.552 0.526606 126.08 3.30084 133.412 8.09508C128.217 12.562 123.941 17.9495 120.812 23.9709C116.653 21.5211 111.918 20.1519 107.06 19.9942C102.201 19.8366 97.3835 20.8962 93.0664 23.0708C88.7493 25.2454 85.078 28.4621 82.4041 32.4138C79.7303 36.3655 78.1432 40.9193 77.7952 45.6391C77.4473 50.359 78.3497 55.0881 80.4166 59.3711C82.4835 63.6538 85.6461 67.3481 89.5999 70.1004C93.5538 72.8527 98.1672 74.5714 102.999 75.0906C107.83 75.6097 112.717 74.9118 117.193 73.0653C118.275 72.6182 119.33 72.1073 120.348 71.5348C121.666 74.1571 123.184 76.6799 124.887 79.0827C127.279 82.4665 132.547 87.6561 132.606 87.7146C125.179 92.3675 116.596 94.9782 107.769 95.2677C98.9417 95.5572 90.1982 93.5158 82.4659 89.3603C74.7337 85.2047 68.3004 79.0896 63.8485 71.6636C59.3967 64.2374 57.0914 55.7761 57.1783 47.1782C57.2653 38.5803 59.7421 30.1646 64.3432 22.8251C68.9444 15.486 75.4999 9.49566 83.3145 5.48919Z" fill="white"/>
<path d="M67.7651 95.2935H42.7077L0 2.11717H24.5421L67.7651 95.2935Z" fill="white"/>
<path d="M143.221 7.32551C152.222 1.72209 162.847 -0.77841 173.437 0.212141C184.027 1.20279 193.989 5.63027 201.768 12.8035L188.119 27.4838C183.763 23.4181 178.203 20.8419 172.256 20.1333C166.31 19.4249 160.289 20.6218 155.082 23.5483C149.875 26.4748 145.756 30.9763 143.329 36.3905C140.902 41.8049 140.297 47.847 141.603 53.6268C142.908 59.4061 146.055 64.6184 150.58 68.4977C155.105 72.3772 160.771 74.7196 166.742 75.1782C172.714 75.6367 178.678 74.1874 183.755 71.0452C188.832 67.903 192.755 63.2329 194.947 57.722H216C213.751 68.0013 208.124 77.2564 199.999 84.0437C191.873 90.831 181.705 94.7696 171.078 95.2454C160.452 95.7212 149.965 92.7069 141.252 86.6736C132.539 80.6404 126.09 71.9271 122.91 61.8911C119.73 51.855 119.998 41.0606 123.672 31.1908C127.346 21.3209 134.219 12.929 143.221 7.32551Z" fill="white"/>
<path d="M195.357 38.1169C197.267 43.1882 197.831 50.7098 194.88 57.1758H160.941C162.253 53.9488 162.94 50.5232 162.967 47.0648C162.99 44.01 162.419 40.9762 161.285 38.1169H195.357Z" fill="white"/>
</svg>
